<?xml version="1.0" standalone="no"?>
<!DOCTYPE svg PUBLIC "-//W3C//DTD SVG 20010904//EN"
 "http://www.w3.org/TR/2001/REC-SVG-20010904/DTD/svg10.dtd">
<svg version="1.0" xmlns="http://www.w3.org/2000/svg"
 width="60.000000pt" height="60.000000pt" viewBox="0 0 60.000000 60.000000"
 preserveAspectRatio="xMidYMid meet">
<metadata>
Created by potrace 1.16, written by Peter Selinger 2001-2019
</metadata>
<g transform="translate(0.000000,60.000000) scale(0.100000,-0.100000)"
fill="#000000" stroke="none">
<path d="M298 581 c-14 -14 -18 -35 -18 -104 0 -71 -3 -87 -15 -87 -8 0 -15
-7 -15 -15 0 -8 -9 -15 -20 -15 -11 0 -20 -4 -20 -10 0 -5 -9 -10 -20 -10 -11
0 -20 -7 -20 -15 0 -8 -7 -15 -15 -15 -8 0 -15 -7 -15 -15 0 -10 -10 -15 -30
-15 -20 0 -30 5 -30 15 0 8 -7 15 -15 15 -8 0 -15 7 -15 15 0 8 -4 15 -10 15
-5 0 -10 11 -10 25 0 16 -6 25 -15 25 -12 0 -15 -16 -15 -85 0 -69 3 -85 15
-85 8 0 15 -5 15 -11 0 -14 25 -39 39 -39 6 0 11 -7 11 -15 0 -8 7 -15 15 -15
8 0 15 -7 15 -15 0 -8 7 -15 15 -15 12 0 15 -13 15 -55 0 -54 0 -55 30 -55 20
0 30 5 30 15 0 8 -7 15 -15 15 -8 0 -15 5 -15 10 0 6 7 10 15 10 8 0 15 7 15
15 0 8 7 15 15 15 8 0 15 7 15 15 0 8 5 15 10 15 6 0 10 -7 10 -15 0 -8 7 -15
15 -15 11 0 15 -11 15 -40 0 -38 2 -40 30 -40 20 0 30 5 30 15 0 8 -4 15 -10
15 -5 0 -10 23 -10 50 0 28 5 50 10 50 6 0 10 7 10 15 0 8 7 15 15 15 9 0 15
9 15 25 0 16 6 25 15 25 11 0 15 12 15 45 0 33 4 45 15 45 8 0 15 -7 15 -15 0
-8 7 -15 15 -15 10 0 15 11 15 35 0 31 -3 35 -25 35 -20 0 -25 5 -25 25 0 24
3 25 55 25 42 0 55 3 55 15 0 11 -12 15 -45 15 -25 0 -45 5 -45 10 0 6 30 10
70 10 l70 0 0 70 c0 56 -3 70 -15 70 -8 0 -15 5 -15 10 0 6 -44 10 -112 9 -94
0 -116 -3 -130 -18z"/>
</g>
</svg>
